WixMadeforText_XBd.ufo
<glyph name="exclam" format="2">
	<unicode hex="0021"/>
	<advance width="288"/>
	<outline>
		<contour>
			<point x="184" y="237" type="line"/>
			<point x="194" y="293"/>
			<point x="236" y="612"/>
			<point x="236" y="634" type="curve" smooth="yes"/>
			<point x="236" y="694"/>
			<point x="194" y="731"/>
			<point x="144" y="731" type="curve"/>
			<point x="94" y="731"/>
			<point x="52" y="694"/>
			<point x="52" y="634" type="curve" smooth="yes"/>
			<point x="52" y="612"/>
			<point x="93" y="293"/>
			<point x="103" y="237" type="curve"/>
		</contour>
		<contour>
			<point x="144" y="-13" type="curve" smooth="yes"/>
			<point x="201" y="-13"/>
			<point x="243" y="28"/>
			<point x="243" y="85" type="curve" smooth="yes"/>
			<point x="243" y="142"/>
			<point x="201" y="183"/>
			<point x="144" y="183" type="curve" smooth="yes"/>
			<point x="87" y="183"/>
			<point x="45" y="142"/>
			<point x="45" y="85" type="curve" smooth="yes"/>
			<point x="45" y="28"/>
			<point x="87" y="-13"/>
		</contour>
	</outline>
</glyph>
<glyph name="ampersand" format="2">
	<unicode hex="0026"/>
	<advance width="686"/>
	<outline>
		<contour>
			<point x="665" y="289" type="line"/>
			<point x="548" y="369" type="line"/>
			<point x="460" y="222" type="line" smooth="yes"/>
			<point x="408" y="137"/>
			<point x="360" y="113"/>
			<point x="305" y="113" type="curve" smooth="yes"/>
			<point x="239" y="113"/>
			<point x="200" y="152"/>
			<point x="200" y="208" type="curve" smooth="yes"/>
			<point x="200" y="263"/>
			<point x="232" y="309"/>
			<point x="310" y="335" type="curve"/>
			<point x="291" y="431" type="line"/>
			<point x="113" y="380"/>
			<point x="35" y="309"/>
			<point x="35" y="197" type="curve" smooth="yes"/>
			<point x="35" y="71"/>
			<point x="137" y="-16"/>
			<point x="293" y="-16" type="curve" smooth="yes"/>
			<point x="415" y="-16"/>
			<point x="506" y="38"/>
			<point x="584" y="161" type="curve" smooth="yes"/>
		</contour>
		<contour>
			<point x="684" y="93" type="line"/>
			<point x="366" y="385" type="line"/>
			<point x="343" y="404" type="line"/>
			<point x="262" y="470"/>
			<point x="244" y="499"/>
			<point x="244" y="541" type="curve" smooth="yes"/>
			<point x="244" y="581"/>
			<point x="273" y="612"/>
			<point x="311" y="612" type="curve" smooth="yes"/>
			<point x="349" y="612"/>
			<point x="379" y="580"/>
			<point x="379" y="535" type="curve" smooth="yes"/>
			<point x="379" y="497"/>
			<point x="341" y="454"/>
			<point x="291" y="439" type="curve"/>
			<point x="309" y="342" type="line"/>
			<point x="432" y="371"/>
			<point x="517" y="450"/>
			<point x="517" y="540" type="curve" smooth="yes"/>
			<point x="517" y="651"/>
			<point x="425" y="731"/>
			<point x="306" y="731" type="curve" smooth="yes"/>
			<point x="187" y="731"/>
			<point x="99" y="649"/>
			<point x="99" y="537" type="curve" smooth="yes"/>
			<point x="99" y="471"/>
			<point x="131" y="418"/>
			<point x="218" y="341" type="curve"/>
			<point x="243" y="321" type="line"/>
			<point x="590" y="-12" type="line"/>
		</contour>
	</outline>
</glyph>
<glyph name="quotesingle" format="2">
	<unicode hex="0027"/>
	<advance width="270"/>
	<outline>
		<contour>
			<point x="162" y="425" type="line"/>
			<point x="189" y="531"/>
			<point x="207" y="635"/>
			<point x="207" y="676" type="curve" smooth="yes"/>
			<point x="207" y="724"/>
			<point x="174" y="753"/>
			<point x="135" y="753" type="curve" smooth="yes"/>
			<point x="96" y="753"/>
			<point x="63" y="724"/>
			<point x="63" y="676" type="curve" smooth="yes"/>
			<point x="63" y="635"/>
			<point x="81" y="531"/>
			<point x="108" y="425" type="curve"/>
		</contour>
	</outline>
</glyph>
<glyph name="plus" format="2">
	<unicode hex="002B"/>
	<advance width="632"/>
	<outline>
		<contour>
			<point x="251" y="137" type="line"/>
			<point x="380" y="137" type="line"/>
			<point x="380" y="292" type="line"/>
			<point x="538" y="292" type="line"/>
			<point x="538" y="424" type="line"/>
			<point x="380" y="424" type="line"/>
			<point x="380" y="579" type="line"/>
			<point x="251" y="579" type="line"/>
			<point x="251" y="424" type="line"/>
			<point x="94" y="424" type="line"/>
			<point x="94" y="292" type="line"/>
			<point x="251" y="292" type="line"/>
		</contour>
	</outline>
</glyph>
<glyph name="three" format="2">
	<unicode hex="0033"/>
	<advance width="610"/>
	<outline>
		<contour>
			<point x="17" y="100" type="line"/>
			<point x="85" y="21"/>
			<point x="172" y="-16"/>
			<point x="293" y="-16" type="curve" smooth="yes"/>
			<point x="458" y="-16"/>
			<point x="570" y="74"/>
			<point x="570" y="208" type="curve" smooth="yes"/>
			<point x="570" y="327"/>
			<point x="485" y="397"/>
			<point x="341" y="397" type="curve"/>
			<point x="321" y="360" type="line"/>
			<point x="458" y="360"/>
			<point x="548" y="427"/>
			<point x="548" y="529" type="curve" smooth="yes"/>
			<point x="548" y="647"/>
			<point x="446" y="731"/>
			<point x="302" y="731" type="curve" smooth="yes"/>
			<point x="191" y="731"/>
			<point x="99" y="694"/>
			<point x="35" y="620" type="curve"/>
			<point x="139" y="507" type="line"/>
			<point x="187" y="569"/>
			<point x="225" y="590"/>
			<point x="286" y="590" type="curve" smooth="yes"/>
			<point x="340" y="590"/>
			<point x="376" y="555"/>
			<point x="376" y="513" type="curve" smooth="yes"/>
			<point x="376" y="466"/>
			<point x="341" y="436"/>
			<point x="284" y="436" type="curve" smooth="yes"/>
			<point x="226" y="436" type="line"/>
			<point x="226" y="299" type="line"/>
			<point x="284" y="299" type="line" smooth="yes"/>
			<point x="360" y="299"/>
			<point x="399" y="268"/>
			<point x="399" y="217" type="curve" smooth="yes"/>
			<point x="399" y="159"/>
			<point x="352" y="121"/>
			<point x="278" y="121" type="curve" smooth="yes"/>
			<point x="219" y="121"/>
			<point x="169" y="147"/>
			<point x="120" y="208" type="curve"/>
		</contour>
	</outline>
</glyph>
<glyph name="seven" format="2">
	<unicode hex="0037"/>
	<advance width="592"/>
	<outline>
		<contour>
			<point x="545" y="715" type="line"/>
			<point x="48" y="715" type="line"/>
			<point x="48" y="581" type="line"/>
			<point x="379" y="581" type="line"/>
			<point x="69" y="0" type="line"/>
			<point x="244" y="0" type="line"/>
			<point x="545" y="581" type="line"/>
		</contour>
	</outline>
</glyph>
<glyph name="eight" format="2">
	<unicode hex="0038"/>
	<advance width="634"/>
	<outline>
		<contour>
			<point x="317" y="-16" type="curve" smooth="yes"/>
			<point x="480" y="-16"/>
			<point x="594" y="74"/>
			<point x="594" y="202" type="curve" smooth="yes"/>
			<point x="594" y="324"/>
			<point x="480" y="410"/>
			<point x="317" y="410" type="curve" smooth="yes"/>
			<point x="154" y="410"/>
			<point x="40" y="324"/>
			<point x="40" y="202" type="curve" smooth="yes"/>
			<point x="40" y="74"/>
			<point x="154" y="-16"/>
		</contour>
		<contour>
			<point x="317" y="120" type="curve" smooth="yes"/>
			<point x="252" y="120"/>
			<point x="208" y="156"/>
			<point x="208" y="211" type="curve" smooth="yes"/>
			<point x="208" y="266"/>
			<point x="251" y="303"/>
			<point x="317" y="303" type="curve" smooth="yes"/>
			<point x="383" y="303"/>
			<point x="426" y="266"/>
			<point x="426" y="211" type="curve" smooth="yes"/>
			<point x="426" y="156"/>
			<point x="382" y="120"/>
		</contour>
		<contour>
			<point x="317" y="353" type="curve" smooth="yes"/>
			<point x="464" y="353"/>
			<point x="566" y="428"/>
			<point x="566" y="537" type="curve" smooth="yes"/>
			<point x="566" y="650"/>
			<point x="462" y="731"/>
			<point x="317" y="731" type="curve" smooth="yes"/>
			<point x="172" y="731"/>
			<point x="68" y="650"/>
			<point x="68" y="537" type="curve" smooth="yes"/>
			<point x="68" y="428"/>
			<point x="170" y="353"/>
		</contour>
		<contour>
			<point x="317" y="436" type="curve" smooth="yes"/>
			<point x="266" y="436"/>
			<point x="229" y="470"/>
			<point x="229" y="517" type="curve" smooth="yes"/>
			<point x="229" y="565"/>
			<point x="265" y="599"/>
			<point x="317" y="599" type="curve" smooth="yes"/>
			<point x="369" y="599"/>
			<point x="405" y="565"/>
			<point x="405" y="517" type="curve" smooth="yes"/>
			<point x="405" y="470"/>
			<point x="368" y="436"/>
		</contour>
	</outline>
</glyph>
<glyph name="B" format="2">
	<unicode hex="0042"/>
	<advance width="685"/>
	<outline>
		<contour>
			<point x="79" y="0" type="line"/>
			<point x="383" y="0" type="line" smooth="yes"/>
			<point x="535" y="0"/>
			<point x="637" y="84"/>
			<point x="637" y="210" type="curve" smooth="yes"/>
			<point x="637" y="328"/>
			<point x="535" y="402"/>
			<point x="383" y="402" type="curve" smooth="yes"/>
			<point x="254" y="402" type="line"/>
			<point x="254" y="349" type="line"/>
			<point x="384" y="349" type="line" smooth="yes"/>
			<point x="519" y="349"/>
			<point x="609" y="423"/>
			<point x="609" y="530" type="curve" smooth="yes"/>
			<point x="609" y="641"/>
			<point x="519" y="715"/>
			<point x="384" y="715" type="curve" smooth="yes"/>
			<point x="79" y="715" type="line"/>
		</contour>
		<contour>
			<point x="245" y="139" type="line"/>
			<point x="245" y="576" type="line"/>
			<point x="372" y="576" type="line" smooth="yes"/>
			<point x="416" y="576"/>
			<point x="442" y="551"/>
			<point x="442" y="508" type="curve" smooth="yes"/>
			<point x="442" y="461"/>
			<point x="416" y="433"/>
			<point x="372" y="433" type="curve" smooth="yes"/>
			<point x="235" y="433" type="line"/>
			<point x="235" y="298" type="line"/>
			<point x="384" y="298" type="line" smooth="yes"/>
			<point x="437" y="298"/>
			<point x="470" y="269"/>
			<point x="470" y="221" type="curve" smooth="yes"/>
			<point x="470" y="169"/>
			<point x="437" y="139"/>
			<point x="384" y="139" type="curve" smooth="yes"/>
		</contour>
	</outline>
</glyph>
<glyph name="C" format="2">
	<unicode hex="0043"/>
	<advance width="728"/>
	<outline>
		<contour>
			<point x="586" y="228" type="line"/>
			<point x="546" y="168"/>
			<point x="483" y="132"/>
			<point x="417" y="132" type="curve" smooth="yes"/>
			<point x="301" y="132"/>
			<point x="223" y="223"/>
			<point x="223" y="358" type="curve" smooth="yes"/>
			<point x="223" y="492"/>
			<point x="302" y="583"/>
			<point x="417" y="583" type="curve" smooth="yes"/>
			<point x="483" y="583"/>
			<point x="546" y="547"/>
			<point x="586" y="487" type="curve"/>
			<point x="692" y="598" type="line"/>
			<point x="627" y="683"/>
			<point x="527" y="731"/>
			<point x="417" y="731" type="curve" smooth="yes"/>
			<point x="200" y="731"/>
			<point x="48" y="577"/>
			<point x="48" y="358" type="curve" smooth="yes"/>
			<point x="48" y="138"/>
			<point x="199" y="-16"/>
			<point x="413" y="-16" type="curve" smooth="yes"/>
			<point x="524" y="-16"/>
			<point x="627" y="33"/>
			<point x="692" y="117" type="curve"/>
		</contour>
	</outline>
	<anchor name="bottom.UC" x="415" y="-50"/>
	<anchor name="top.UC" x="417" y="750"/>
</glyph>
<glyph name="G" format="2">
	<unicode hex="0047"/>
	<advance width="781"/>
	<outline>
		<contour>
			<point x="727" y="0" type="line"/>
			<point x="727" y="402" type="line"/>
			<point x="406" y="402" type="line"/>
			<point x="406" y="269" type="line"/>
			<point x="574" y="269" type="line"/>
			<point x="574" y="194" type="line"/>
			<point x="584" y="233" type="line"/>
			<point x="551" y="165"/>
			<point x="495" y="132"/>
			<point x="422" y="132" type="curve" smooth="yes"/>
			<point x="300" y="132"/>
			<point x="223" y="222"/>
			<point x="223" y="358" type="curve" smooth="yes"/>
			<point x="223" y="491"/>
			<point x="303" y="583"/>
			<point x="417" y="583" type="curve" smooth="yes"/>
			<point x="489" y="583"/>
			<point x="549" y="551"/>
			<point x="598" y="487" type="curve"/>
			<point x="704" y="598" type="line"/>
			<point x="639" y="681"/>
			<point x="531" y="731"/>
			<point x="417" y="731" type="curve" smooth="yes"/>
			<point x="203" y="731"/>
			<point x="48" y="574"/>
			<point x="48" y="358" type="curve" smooth="yes"/>
			<point x="48" y="144"/>
			<point x="193" y="-16"/>
			<point x="387" y="-16" type="curve" smooth="yes"/>
			<point x="479" y="-16"/>
			<point x="546" y="19"/>
			<point x="586" y="88" type="curve"/>
			<point x="575" y="93" type="line"/>
			<point x="575" y="0" type="line"/>
		</contour>
	</outline>
	<anchor name="top.UC" x="417" y="750"/>
	<anchor name="bottom.UC" x="397" y="-50"/>
	<guideline x="302"/>
	<guideline x="417"/>
</glyph>
<glyph name="J" format="2">
	<unicode hex="004A"/>
	<advance width="670"/>
	<outline>
		<contour>
			<point x="601" y="715" type="line"/>
			<point x="435" y="715" type="line"/>
			<point x="435" y="282" type="line" smooth="yes"/>
			<point x="435" y="184"/>
			<point x="393" y="133"/>
			<point x="315" y="133" type="curve" smooth="yes"/>
			<point x="241" y="133"/>
			<point x="201" y="184"/>
			<point x="194" y="280" type="curve"/>
			<point x="30" y="261" type="line"/>
			<point x="37" y="91"/>
			<point x="148" y="-16"/>
			<point x="315" y="-16" type="curve" smooth="yes"/>
			<point x="500" y="-16"/>
			<point x="601" y="89"/>
			<point x="601" y="282" type="curve" smooth="yes"/>
		</contour>
	</outline>
	<anchor name="top.UC" x="518" y="750"/>
</glyph>
<glyph name="L" format="2">
	<unicode hex="004C"/>
	<advance width="579"/>
	<outline>
		<contour>
			<point x="551" y="0" type="line"/>
			<point x="551" y="145" type="line"/>
			<point x="245" y="145" type="line"/>
			<point x="245" y="715" type="line"/>
			<point x="79" y="715" type="line"/>
			<point x="79" y="0" type="line"/>
		</contour>
	</outline>
	<anchor name="bottom.UC" x="315" y="-50"/>
	<anchor name="top.UC" x="162" y="750"/>
	<anchor name="top_right" x="383" y="540"/>
</glyph>
<glyph name="O" format="2">
	<unicode hex="004F"/>
	<advance width="827"/>
	<outline>
		<contour>
			<point x="414" y="-16" type="curve" smooth="yes"/>
			<point x="627" y="-16"/>
			<point x="779" y="142"/>
			<point x="779" y="358" type="curve" smooth="yes"/>
			<point x="779" y="573"/>
			<point x="627" y="731"/>
			<point x="414" y="731" type="curve" smooth="yes"/>
			<point x="200" y="731"/>
			<point x="48" y="573"/>
			<point x="48" y="358" type="curve" smooth="yes"/>
			<point x="48" y="142"/>
			<point x="200" y="-16"/>
		</contour>
		<contour>
			<point x="414" y="133" type="curve" smooth="yes"/>
			<point x="301" y="133"/>
			<point x="223" y="227"/>
			<point x="223" y="358" type="curve" smooth="yes"/>
			<point x="223" y="488"/>
			<point x="301" y="582"/>
			<point x="414" y="582" type="curve" smooth="yes"/>
			<point x="527" y="582"/>
			<point x="605" y="488"/>
			<point x="605" y="358" type="curve" smooth="yes"/>
			<point x="605" y="227"/>
			<point x="527" y="133"/>
		</contour>
	</outline>
	<anchor name="bottom.UC" x="414" y="-50"/>
	<anchor name="top.UC" x="414" y="750"/>
</glyph>
<glyph name="P" format="2">
	<unicode hex="0050"/>
	<advance width="655"/>
	<outline>
		<contour>
			<point x="245" y="0" type="line"/>
			<point x="245" y="574" type="line"/>
			<point x="361" y="574" type="line" smooth="yes"/>
			<point x="414" y="574"/>
			<point x="448" y="540"/>
			<point x="448" y="486" type="curve" smooth="yes"/>
			<point x="448" y="432"/>
			<point x="414" y="398"/>
			<point x="361" y="398" type="curve" smooth="yes"/>
			<point x="235" y="398" type="line"/>
			<point x="235" y="257" type="line"/>
			<point x="361" y="257" type="line" smooth="yes"/>
			<point x="511" y="257"/>
			<point x="615" y="349"/>
			<point x="615" y="486" type="curve" smooth="yes"/>
			<point x="615" y="622"/>
			<point x="511" y="715"/>
			<point x="361" y="715" type="curve" smooth="yes"/>
			<point x="79" y="715" type="line"/>
			<point x="79" y="0" type="line"/>
		</contour>
	</outline>
</glyph>
<glyph name="Z" format="2">
	<unicode hex="005A"/>
	<advance width="622"/>
	<outline>
		<contour>
			<point x="584" y="0" type="line"/>
			<point x="584" y="141" type="line"/>
			<point x="239" y="141" type="line"/>
			<point x="571" y="574" type="line"/>
			<point x="571" y="715" type="line"/>
			<point x="50" y="715" type="line"/>
			<point x="50" y="574" type="line"/>
			<point x="366" y="574" type="line"/>
			<point x="36" y="141" type="line"/>
			<point x="36" y="0" type="line"/>
		</contour>
	</outline>
	<anchor name="top.UC" x="310" y="750"/>
</glyph>
<glyph name="bracketright" format="2">
	<unicode hex="005D"/>
	<advance width="336"/>
	<outline>
		<contour>
			<point x="24" y="-129" type="line"/>
			<point x="24" y="0" type="line"/>
			<point x="115" y="0" type="line"/>
			<point x="115" y="602" type="line"/>
			<point x="24" y="602" type="line"/>
			<point x="24" y="731" type="line"/>
			<point x="273" y="731" type="line"/>
			<point x="273" y="-129" type="line"/>
		</contour>
	</outline>
</glyph>
<glyph name="b" format="2">
	<unicode hex="0062"/>
	<advance width="647"/>
	<outline>
		<contour>
			<point x="225" y="0" type="line"/>
			<point x="225" y="110" type="line"/>
			<point x="226" y="120" type="line"/>
			<point x="226" y="258" type="line" smooth="yes"/>
			<point x="226" y="340"/>
			<point x="271" y="390"/>
			<point x="333" y="390" type="curve" smooth="yes"/>
			<point x="400" y="390"/>
			<point x="439" y="333"/>
			<point x="439" y="255" type="curve" smooth="yes"/>
			<point x="439" y="177"/>
			<point x="395" y="120"/>
			<point x="326" y="120" type="curve" smooth="yes"/>
			<point x="274" y="120"/>
			<point x="231" y="155"/>
			<point x="222" y="208" type="curve"/>
			<point x="185" y="192" type="line"/>
			<point x="185" y="77"/>
			<point x="250" y="-16"/>
			<point x="372" y="-16" type="curve" smooth="yes"/>
			<point x="498" y="-16"/>
			<point x="607" y="92"/>
			<point x="607" y="255" type="curve" smooth="yes"/>
			<point x="607" y="418"/>
			<point x="498" y="526"/>
			<point x="371" y="526" type="curve" smooth="yes"/>
			<point x="260" y="526"/>
			<point x="198" y="450"/>
			<point x="187" y="349" type="curve"/>
			<point x="226" y="349" type="line"/>
			<point x="226" y="720" type="line"/>
			<point x="63" y="720" type="line"/>
			<point x="63" y="0" type="line"/>
		</contour>
	</outline>
</glyph>
<glyph name="i" format="2">
	<unicode hex="0069"/>
	<advance width="289"/>
	<outline>
		<contour>
			<point x="226" y="0" type="line"/>
			<point x="226" y="510" type="line"/>
			<point x="63" y="510" type="line"/>
			<point x="63" y="0" type="line"/>
		</contour>
		<contour>
			<point x="240" y="661" type="curve" smooth="yes"/>
			<point x="240" y="712"/>
			<point x="199" y="753"/>
			<point x="144" y="753" type="curve" smooth="yes"/>
			<point x="89" y="753"/>
			<point x="48" y="712"/>
			<point x="48" y="661" type="curve" smooth="yes"/>
			<point x="48" y="610"/>
			<point x="89" y="569"/>
			<point x="144" y="569" type="curve" smooth="yes"/>
			<point x="199" y="569"/>
			<point x="240" y="610"/>
		</contour>
	</outline>
	<anchor name="bottom.LC" x="144" y="-50"/>
	<anchor name="ogonek.LC" x="81" y="-30"/>
	<guideline x="63" y="0" angle="90"/>
	<guideline x="226" y="0" angle="90"/>
</glyph>
<glyph name="l" format="2">
	<unicode hex="006C"/>
	<advance width="289"/>
	<outline>
		<contour>
			<point x="226" y="0" type="line"/>
			<point x="226" y="720" type="line"/>
			<point x="63" y="720" type="line"/>
			<point x="63" y="0" type="line"/>
		</contour>
	</outline>
	<anchor name="bottom.LC" x="144" y="-50"/>
	<anchor name="top.LC" x="144" y="766"/>
	<anchor name="top_right" x="350" y="540"/>
</glyph>
<glyph name="s" format="2">
	<unicode hex="0073"/>
	<advance width="529"/>
	<outline>
		<contour>
			<point x="22" y="71" type="line"/>
			<point x="74" y="18"/>
			<point x="167" y="-16"/>
			<point x="260" y="-16" type="curve" smooth="yes"/>
			<point x="403" y="-16"/>
			<point x="495" y="50"/>
			<point x="495" y="153" type="curve" smooth="yes"/>
			<point x="495" y="250"/>
			<point x="434" y="301"/>
			<point x="288" y="324" type="curve" smooth="yes"/>
			<point x="208" y="337"/>
			<point x="196" y="343"/>
			<point x="196" y="368" type="curve" smooth="yes"/>
			<point x="196" y="392"/>
			<point x="224" y="408"/>
			<point x="267" y="408" type="curve" smooth="yes"/>
			<point x="324" y="408"/>
			<point x="376" y="384"/>
			<point x="414" y="341" type="curve"/>
			<point x="492" y="439" type="line"/>
			<point x="436" y="495"/>
			<point x="354" y="526"/>
			<point x="262" y="526" type="curve" smooth="yes"/>
			<point x="136" y="526"/>
			<point x="45" y="455"/>
			<point x="45" y="356" type="curve" smooth="yes"/>
			<point x="45" y="264"/>
			<point x="111" y="211"/>
			<point x="251" y="191" type="curve" smooth="yes"/>
			<point x="322" y="180"/>
			<point x="343" y="169"/>
			<point x="343" y="142" type="curve" smooth="yes"/>
			<point x="343" y="118"/>
			<point x="311" y="103"/>
			<point x="264" y="103" type="curve" smooth="yes"/>
			<point x="193" y="103"/>
			<point x="136" y="129"/>
			<point x="96" y="169" type="curve"/>
		</contour>
	</outline>
	<anchor name="top.LC" x="264" y="544"/>
	<anchor name="bottom.LC" x="263" y="-50"/>
</glyph>
<glyph name="braceleft" format="2">
	<unicode hex="007B"/>
	<advance width="394"/>
	<outline>
		<contour>
			<point x="355" y="-2" type="line"/>
			<point x="311" y="-2" type="line" smooth="yes"/>
			<point x="276" y="-2"/>
			<point x="264" y="11"/>
			<point x="264" y="50" type="curve" smooth="yes"/>
			<point x="264" y="165" type="line" smooth="yes"/>
			<point x="264" y="267"/>
			<point x="217" y="317"/>
			<point x="117" y="317" type="curve"/>
			<point x="117" y="288" type="line"/>
			<point x="217" y="288"/>
			<point x="264" y="338"/>
			<point x="264" y="442" type="curve" smooth="yes"/>
			<point x="264" y="552" type="line" smooth="yes"/>
			<point x="264" y="591"/>
			<point x="276" y="604"/>
			<point x="311" y="604" type="curve" smooth="yes"/>
			<point x="355" y="604" type="line"/>
			<point x="355" y="731" type="line"/>
			<point x="253" y="731" type="line" smooth="yes"/>
			<point x="154" y="731"/>
			<point x="106" y="681"/>
			<point x="106" y="577" type="curve" smooth="yes"/>
			<point x="106" y="418" type="line" smooth="yes"/>
			<point x="106" y="379"/>
			<point x="94" y="366"/>
			<point x="60" y="366" type="curve" smooth="yes"/>
			<point x="39" y="366" type="line"/>
			<point x="39" y="239" type="line"/>
			<point x="60" y="239" type="line" smooth="yes"/>
			<point x="94" y="239"/>
			<point x="106" y="226"/>
			<point x="106" y="187" type="curve" smooth="yes"/>
			<point x="106" y="25" type="line" smooth="yes"/>
			<point x="106" y="-79"/>
			<point x="154" y="-129"/>
			<point x="253" y="-129" type="curve" smooth="yes"/>
			<point x="355" y="-129" type="line"/>
		</contour>
	</outline>
</glyph>
<glyph name="registered" format="2">
	<unicode hex="00AE"/>
	<advance width="526"/>
	<outline>
		<contour>
			<point x="233" y="385" type="line"/>
			<point x="233" y="553" type="line"/>
			<point x="268" y="553" type="line" smooth="yes"/>
			<point x="282" y="553"/>
			<point x="293" y="542"/>
			<point x="293" y="526" type="curve" smooth="yes"/>
			<point x="293" y="510"/>
			<point x="282" y="499"/>
			<point x="268" y="499" type="curve" smooth="yes"/>
			<point x="230" y="499" type="line"/>
			<point x="230" y="447" type="line"/>
			<point x="268" y="447" type="line" smooth="yes"/>
			<point x="320" y="447"/>
			<point x="354" y="479"/>
			<point x="354" y="526" type="curve" smooth="yes"/>
			<point x="354" y="573"/>
			<point x="320" y="605"/>
			<point x="268" y="605" type="curve" smooth="yes"/>
			<point x="174" y="605" type="line"/>
			<point x="174" y="385" type="line"/>
		</contour>
		<contour>
			<point x="368" y="385" type="line"/>
			<point x="297" y="469" type="line"/>
			<point x="229" y="469" type="line"/>
			<point x="297" y="385" type="line"/>
		</contour>
		<contour>
			<point x="263" y="243" type="curve" smooth="yes"/>
			<point x="395" y="243"/>
			<point x="503" y="353"/>
			<point x="503" y="488" type="curve" smooth="yes"/>
			<point x="503" y="623"/>
			<point x="395" y="733"/>
			<point x="263" y="733" type="curve" smooth="yes"/>
			<point x="131" y="733"/>
			<point x="23" y="623"/>
			<point x="23" y="488" type="curve" smooth="yes"/>
			<point x="23" y="353"/>
			<point x="131" y="243"/>
		</contour>
		<contour>
			<point x="263" y="319" type="curve" smooth="yes"/>
			<point x="169" y="319"/>
			<point x="101" y="387"/>
			<point x="101" y="488" type="curve" smooth="yes"/>
			<point x="101" y="589"/>
			<point x="169" y="657"/>
			<point x="263" y="657" type="curve" smooth="yes"/>
			<point x="357" y="657"/>
			<point x="425" y="589"/>
			<point x="425" y="488" type="curve" smooth="yes"/>
			<point x="425" y="387"/>
			<point x="357" y="319"/>
		</contour>
	</outline>
</glyph>
<glyph name="multiply" format="2">
	<unicode hex="00D7"/>
	<advance width="632"/>
	<outline>
		<contour>
			<point x="526" y="230" type="line"/>
			<point x="197" y="576" type="line"/>
			<point x="106" y="485" type="line"/>
			<point x="435" y="139" type="line"/>
		</contour>
		<contour>
			<point x="197" y="139" type="line"/>
			<point x="526" y="485" type="line"/>
			<point x="435" y="576" type="line"/>
			<point x="106" y="230" type="line"/>
		</contour>
	</outline>
	<guideline y="139"/>
	<guideline y="230"/>
	<guideline y="485"/>
	<guideline y="576"/>
</glyph>
<glyph name="oslash" format="2">
	<unicode hex="00F8"/>
	<advance width="627"/>
	<outline>
		<contour>
			<point x="95" y="-33" type="line"/>
			<point x="605" y="469" type="line"/>
			<point x="531" y="543" type="line"/>
			<point x="21" y="41" type="line"/>
		</contour>
		<contour>
			<point x="313" y="-16" type="curve" smooth="yes"/>
			<point x="475" y="-16"/>
			<point x="586" y="96"/>
			<point x="586" y="255" type="curve" smooth="yes"/>
			<point x="586" y="414"/>
			<point x="475" y="526"/>
			<point x="313" y="526" type="curve" smooth="yes"/>
			<point x="151" y="526"/>
			<point x="40" y="414"/>
			<point x="40" y="255" type="curve" smooth="yes"/>
			<point x="40" y="96"/>
			<point x="151" y="-16"/>
		</contour>
		<contour>
			<point x="313" y="120" type="curve" smooth="yes"/>
			<point x="247" y="120"/>
			<point x="205" y="174"/>
			<point x="205" y="255" type="curve" smooth="yes"/>
			<point x="205" y="334"/>
			<point x="248" y="390"/>
			<point x="313" y="390" type="curve" smooth="yes"/>
			<point x="379" y="390"/>
			<point x="421" y="336"/>
			<point x="421" y="255" type="curve" smooth="yes"/>
			<point x="421" y="176"/>
			<point x="378" y="120"/>
		</contour>
	</outline>
</glyph>
<glyph name="dotlessi" format="2">
	<unicode hex="0131"/>
	<advance width="289"/>
	<outline>
		<contour>
			<point x="226" y="0" type="line"/>
			<point x="226" y="510" type="line"/>
			<point x="63" y="510" type="line"/>
			<point x="63" y="0" type="line"/>
		</contour>
	</outline>
	<anchor name="top.LC" x="144" y="544"/>
	<guideline x="144"/>
	<guideline y="510"/>
	<guideline y="657"/>
</glyph>
<glyph name="Tbar" format="2">
	<unicode hex="0166"/>
	<advance width="625"/>
	<outline>
		<contour>
			<point x="550" y="288" type="line"/>
			<point x="550" y="431" type="line"/>
			<point x="74" y="431" type="line"/>
			<point x="74" y="288" type="line"/>
		</contour>
		<contour>
			<point x="395" y="0" type="line"/>
			<point x="395" y="582" type="line"/>
			<point x="230" y="582" type="line"/>
			<point x="230" y="0" type="line"/>
		</contour>
		<contour>
			<point x="596" y="572" type="line"/>
			<point x="596" y="715" type="line"/>
			<point x="29" y="715" type="line"/>
			<point x="29" y="572" type="line"/>
		</contour>
	</outline>
</glyph>
<glyph name="ohorn" format="2">
	<unicode hex="01A1"/>
	<advance width="653"/>
	<outline>
		<contour>
			<point x="313" y="-16" type="curve" smooth="yes"/>
			<point x="476" y="-16"/>
			<point x="587" y="96"/>
			<point x="587" y="255" type="curve" smooth="yes"/>
			<point x="587" y="323"/>
			<point x="567" y="385"/>
			<point x="527" y="432" type="curve"/>
			<point x="521" y="420" type="line"/>
			<point x="609" y="437"/>
			<point x="655" y="492"/>
			<point x="655" y="585" type="curve" smooth="yes"/>
			<point x="655" y="626" type="line"/>
			<point x="527" y="626" type="line"/>
			<point x="527" y="582" type="line" smooth="yes"/>
			<point x="527" y="534"/>
			<point x="504" y="510"/>
			<point x="447" y="510" type="curve" smooth="yes"/>
			<point x="435" y="510"/>
			<point x="426" y="511"/>
			<point x="414" y="513" type="curve" smooth="yes"/>
			<point x="384" y="518"/>
			<point x="356" y="526"/>
			<point x="313" y="526" type="curve" smooth="yes"/>
			<point x="151" y="526"/>
			<point x="40" y="414"/>
			<point x="40" y="255" type="curve" smooth="yes"/>
			<point x="40" y="96"/>
			<point x="151" y="-16"/>
		</contour>
		<contour>
			<point x="313" y="120" type="curve" smooth="yes"/>
			<point x="251" y="120"/>
			<point x="208" y="176"/>
			<point x="208" y="255" type="curve" smooth="yes"/>
			<point x="208" y="334"/>
			<point x="251" y="390"/>
			<point x="313" y="390" type="curve" smooth="yes"/>
			<point x="376" y="390"/>
			<point x="419" y="334"/>
			<point x="419" y="255" type="curve" smooth="yes"/>
			<point x="419" y="176"/>
			<point x="376" y="120"/>
		</contour>
	</outline>
	<anchor name="bottom.LC" x="313" y="-50"/>
	<anchor name="top.LC" x="313" y="544"/>
	<guideline x="313" y="0" angle="90"/>
</glyph>
<glyph name="Uhorn" format="2">
	<unicode hex="01AF"/>
	<advance width="807"/>
	<outline>
		<contour>
			<point x="369" y="-16" type="curve" smooth="yes"/>
			<point x="556" y="-16"/>
			<point x="669" y="94"/>
			<point x="669" y="282" type="curve" smooth="yes"/>
			<point x="669" y="630" type="line"/>
			<point x="654" y="617" type="line"/>
			<point x="785" y="626"/>
			<point x="849" y="688"/>
			<point x="849" y="812" type="curve" smooth="yes"/>
			<point x="849" y="864" type="line"/>
			<point x="713" y="864" type="line"/>
			<point x="713" y="804" type="line" smooth="yes"/>
			<point x="713" y="738"/>
			<point x="690" y="715"/>
			<point x="625" y="715" type="curve" smooth="yes"/>
			<point x="504" y="715" type="line"/>
			<point x="504" y="282" type="line" smooth="yes"/>
			<point x="504" y="195"/>
			<point x="453" y="133"/>
			<point x="369" y="133" type="curve" smooth="yes"/>
			<point x="285" y="133"/>
			<point x="235" y="195"/>
			<point x="235" y="282" type="curve" smooth="yes"/>
			<point x="235" y="715" type="line"/>
			<point x="69" y="715" type="line"/>
			<point x="69" y="282" type="line" smooth="yes"/>
			<point x="69" y="94"/>
			<point x="182" y="-16"/>
		</contour>
	</outline>
	<anchor name="bottom.UC" x="369" y="-50"/>
	<anchor name="top.UC" x="369" y="750"/>
	<guideline x="369" y="0" angle="90"/>
</glyph>
<glyph name="hungarumlautcomb" format="2">
	<unicode hex="030B"/>
	<outline>
		<contour>
			<point x="101" y="761" type="line"/>
			<point x="-77" y="761" type="line"/>
			<point x="-181" y="587" type="line"/>
			<point x="-34" y="587" type="line"/>
		</contour>
		<contour>
			<point x="328" y="761" type="line"/>
			<point x="150" y="761" type="line"/>
			<point x="15" y="587" type="line"/>
			<point x="162" y="587" type="line"/>
		</contour>
	</outline>
	<anchor name="_top.LC" x="0" y="544"/>
</glyph>
<glyph name="ogonekcomb" format="2">
	<unicode hex="0328"/>
	<outline>
		<contour>
			<point x="145" y="-147" type="line"/>
			<point x="134" y="-150"/>
			<point x="123" y="-151"/>
			<point x="116" y="-151" type="curve" smooth="yes"/>
			<point x="82" y="-151"/>
			<point x="56" y="-136"/>
			<point x="56" y="-104" type="curve" smooth="yes"/>
			<point x="56" y="-72"/>
			<point x="82" y="-35"/>
			<point x="145" y="0" type="curve"/>
			<point x="51" y="22" type="line"/>
			<point x="-33" y="-28"/>
			<point x="-67" y="-78"/>
			<point x="-67" y="-135" type="curve" smooth="yes"/>
			<point x="-67" y="-215"/>
			<point x="3" y="-255"/>
			<point x="97" y="-255" type="curve" smooth="yes"/>
			<point x="113" y="-255"/>
			<point x="129" y="-254"/>
			<point x="145" y="-251" type="curve"/>
		</contour>
	</outline>
	<anchor name="_ogonek.LC" x="0" y="-30"/>
</glyph>
<glyph name="Dje" format="2">
	<unicode hex="0402"/>
	<advance width="751"/>
	<outline>
		<contour>
			<point x="24" y="572" type="line"/>
			<point x="578" y="572" type="line"/>
			<point x="578" y="715" type="line"/>
			<point x="24" y="715" type="line"/>
		</contour>
		<contour>
			<point x="400" y="0" type="line"/>
			<point x="456" y="0" type="line" smooth="yes"/>
			<point x="627" y="0"/>
			<point x="721" y="81"/>
			<point x="721" y="228" type="curve" smooth="yes"/>
			<point x="721" y="377"/>
			<point x="630" y="460"/>
			<point x="464" y="460" type="curve" smooth="yes"/>
			<point x="398" y="460"/>
			<point x="336" y="444"/>
			<point x="276" y="411" type="curve"/>
			<point x="298" y="288" type="line"/>
			<point x="354" y="307"/>
			<point x="389" y="314"/>
			<point x="435" y="314" type="curve" smooth="yes"/>
			<point x="517" y="314"/>
			<point x="553" y="286"/>
			<point x="553" y="227" type="curve" smooth="yes"/>
			<point x="553" y="174"/>
			<point x="517" y="143"/>
			<point x="452" y="143" type="curve" smooth="yes"/>
			<point x="400" y="143" type="line"/>
		</contour>
		<contour>
			<point x="160" y="0" type="line"/>
			<point x="325" y="0" type="line"/>
			<point x="325" y="665" type="line"/>
			<point x="160" y="665" type="line"/>
		</contour>
	</outline>
</glyph>
<glyph name="Tshe" format="2">
	<unicode hex="040B"/>
	<advance width="765"/>
	<outline>
		<contour>
			<point x="24" y="572" type="line"/>
			<point x="578" y="572" type="line"/>
			<point x="578" y="715" type="line"/>
			<point x="24" y="715" type="line"/>
		</contour>
		<contour>
			<point x="555" y="0" type="line"/>
			<point x="721" y="0" type="line"/>
			<point x="721" y="223" type="line" smooth="yes"/>
			<point x="721" y="376"/>
			<point x="634" y="460"/>
			<point x="477" y="460" type="curve" smooth="yes"/>
			<point x="407" y="460"/>
			<point x="334" y="442"/>
			<point x="276" y="411" type="curve"/>
			<point x="298" y="288" type="line"/>
			<point x="356" y="306"/>
			<point x="402" y="314"/>
			<point x="438" y="314" type="curve" smooth="yes"/>
			<point x="519" y="314"/>
			<point x="555" y="279"/>
			<point x="555" y="201" type="curve" smooth="yes"/>
		</contour>
		<contour>
			<point x="160" y="0" type="line"/>
			<point x="326" y="0" type="line"/>
			<point x="326" y="655" type="line"/>
			<point x="160" y="655" type="line"/>
		</contour>
	</outline>
</glyph>
<glyph name="Be" format="2">
	<unicode hex="0411"/>
	<advance width="668"/>
	<outline>
		<contour>
			<point x="79" y="0" type="line"/>
			<point x="376" y="0" type="line" smooth="yes"/>
			<point x="528" y="0"/>
			<point x="630" y="90"/>
			<point x="630" y="224" type="curve" smooth="yes"/>
			<point x="630" y="355"/>
			<point x="529" y="440"/>
			<point x="376" y="440" type="curve" smooth="yes"/>
			<point x="185" y="440" type="line"/>
			<point x="185" y="301" type="line"/>
			<point x="377" y="301" type="line" smooth="yes"/>
			<point x="430" y="301"/>
			<point x="463" y="273"/>
			<point x="463" y="224" type="curve" smooth="yes"/>
			<point x="463" y="170"/>
			<point x="430" y="139"/>
			<point x="377" y="139" type="curve" smooth="yes"/>
			<point x="220" y="139" type="line"/>
			<point x="245" y="114" type="line"/>
			<point x="245" y="598" type="line"/>
			<point x="220" y="574" type="line"/>
			<point x="582" y="574" type="line"/>
			<point x="582" y="715" type="line"/>
			<point x="79" y="715" type="line"/>
		</contour>
	</outline>
</glyph>
<glyph name="Zhe" format="2">
	<unicode hex="0416"/>
	<advance width="1140"/>
	<outline>
		<contour>
			<point x="20" y="0" type="line"/>
			<point x="233" y="0" type="line"/>
			<point x="514" y="371" type="line"/>
			<point x="499" y="371" type="line"/>
			<point x="247" y="715" type="line"/>
			<point x="47" y="715" type="line"/>
			<point x="310" y="371" type="line"/>
		</contour>
		<contour>
			<point x="487" y="0" type="line"/>
			<point x="653" y="0" type="line"/>
			<point x="653" y="715" type="line"/>
			<point x="487" y="715" type="line"/>
		</contour>
		<contour>
			<point x="907" y="0" type="line"/>
			<point x="1120" y="0" type="line"/>
			<point x="830" y="371" type="line"/>
			<point x="1093" y="715" type="line"/>
			<point x="893" y="715" type="line"/>
			<point x="641" y="371" type="line"/>
			<point x="626" y="371" type="line"/>
		</contour>
	</outline>
</glyph>
<glyph name="Ze" format="2">
	<unicode hex="0417"/>
	<advance width="666"/>
	<outline>
		<contour>
			<point x="329" y="-16" type="curve" smooth="yes"/>
			<point x="496" y="-16"/>
			<point x="616" y="72"/>
			<point x="616" y="210" type="curve" smooth="yes"/>
			<point x="616" y="297"/>
			<point x="558" y="371"/>
			<point x="467" y="386" type="curve"/>
			<point x="468" y="370" type="line"/>
			<point x="548" y="388"/>
			<point x="597" y="458"/>
			<point x="597" y="534" type="curve" smooth="yes"/>
			<point x="597" y="649"/>
			<point x="494" y="731"/>
			<point x="329" y="731" type="curve" smooth="yes"/>
			<point x="209" y="731"/>
			<point x="114" y="686"/>
			<point x="46" y="597" type="curve"/>
			<point x="147" y="487" type="line"/>
			<point x="192" y="556"/>
			<point x="252" y="583"/>
			<point x="318" y="583" type="curve" smooth="yes"/>
			<point x="387" y="583"/>
			<point x="429" y="553"/>
			<point x="429" y="504" type="curve" smooth="yes"/>
			<point x="429" y="455"/>
			<point x="394" y="435"/>
			<point x="332" y="435" type="curve" smooth="yes"/>
			<point x="205" y="435" type="line"/>
			<point x="205" y="294" type="line"/>
			<point x="332" y="294" type="line" smooth="yes"/>
			<point x="408" y="294"/>
			<point x="449" y="275"/>
			<point x="449" y="221" type="curve" smooth="yes"/>
			<point x="449" y="167"/>
			<point x="400" y="132"/>
			<point x="327" y="132" type="curve" smooth="yes"/>
			<point x="250" y="132"/>
			<point x="173" y="164"/>
			<point x="129" y="226" type="curve"/>
			<point x="28" y="116" type="line"/>
			<point x="91" y="31"/>
			<point x="194" y="-16"/>
		</contour>
	</outline>
</glyph>
<glyph name="Tse" format="2">
	<unicode hex="0426"/>
	<advance width="788"/>
	<outline>
		<contour>
			<point x="667" y="87" type="line"/>
			<point x="667" y="715" type="line"/>
			<point x="501" y="715" type="line"/>
			<point x="501" y="87" type="line"/>
		</contour>
		<contour>
			<point x="598" y="-174" type="line"/>
			<point x="753" y="-174" type="line"/>
			<point x="753" y="142" type="line"/>
			<point x="220" y="142" type="line"/>
			<point x="245" y="117" type="line"/>
			<point x="245" y="715" type="line"/>
			<point x="79" y="715" type="line"/>
			<point x="79" y="0" type="line"/>
			<point x="623" y="0" type="line"/>
			<point x="598" y="25" type="line"/>
		</contour>
	</outline>
</glyph>
<glyph name="Sha" format="2">
	<unicode hex="0428"/>
	<advance width="1076"/>
	<outline>
		<contour>
			<point x="79" y="0" type="line"/>
			<point x="997" y="0" type="line"/>
			<point x="997" y="715" type="line"/>
			<point x="831" y="715" type="line"/>
			<point x="831" y="88" type="line"/>
			<point x="881" y="142" type="line"/>
			<point x="558" y="142" type="line"/>
			<point x="620" y="89" type="line"/>
			<point x="620" y="715" type="line"/>
			<point x="454" y="715" type="line"/>
			<point x="454" y="89" type="line"/>
			<point x="517" y="142" type="line"/>
			<point x="199" y="142" type="line"/>
			<point x="245" y="88" type="line"/>
			<point x="245" y="715" type="line"/>
			<point x="79" y="715" type="line"/>
		</contour>
	</outline>
</glyph>
<glyph name="Ecyr" format="2">
	<unicode hex="042D"/>
	<advance width="726"/>
	<outline>
		<contour>
			<point x="314" y="-16" type="curve" smooth="yes"/>
			<point x="529" y="-16"/>
			<point x="678" y="138"/>
			<point x="678" y="358" type="curve" smooth="yes"/>
			<point x="678" y="575"/>
			<point x="525" y="731"/>
			<point x="311" y="731" type="curve" smooth="yes"/>
			<point x="201" y="731"/>
			<point x="100" y="683"/>
			<point x="37" y="599" type="curve"/>
			<point x="142" y="483" type="line"/>
			<point x="183" y="545"/>
			<point x="245" y="582"/>
			<point x="311" y="582" type="curve" smooth="yes"/>
			<point x="429" y="582"/>
			<point x="512" y="489"/>
			<point x="512" y="358" type="curve" smooth="yes"/>
			<point x="512" y="226"/>
			<point x="429" y="133"/>
			<point x="311" y="133" type="curve" smooth="yes"/>
			<point x="245" y="133"/>
			<point x="183" y="170"/>
			<point x="142" y="232" type="curve"/>
			<point x="37" y="116" type="line"/>
			<point x="99" y="33"/>
			<point x="203" y="-16"/>
		</contour>
		<contour>
			<point x="201" y="294" type="line"/>
			<point x="578" y="294" type="line"/>
			<point x="578" y="436" type="line"/>
			<point x="201" y="436" type="line"/>
		</contour>
	</outline>
</glyph>
<glyph name="Ya" format="2">
	<unicode hex="042F"/>
	<advance width="685"/>
	<outline>
		<contour>
			<point x="440" y="0" type="line"/>
			<point x="606" y="0" type="line"/>
			<point x="606" y="715" type="line"/>
			<point x="325" y="715" type="line" smooth="yes"/>
			<point x="174" y="715"/>
			<point x="71" y="622"/>
			<point x="71" y="485" type="curve" smooth="yes"/>
			<point x="71" y="349"/>
			<point x="174" y="256"/>
			<point x="325" y="256" type="curve" smooth="yes"/>
			<point x="455" y="256" type="line"/>
			<point x="455" y="397" type="line"/>
			<point x="325" y="397" type="line" smooth="yes"/>
			<point x="272" y="397"/>
			<point x="238" y="431"/>
			<point x="238" y="485" type="curve" smooth="yes"/>
			<point x="238" y="540"/>
			<point x="272" y="574"/>
			<point x="325" y="574" type="curve" smooth="yes"/>
			<point x="440" y="574" type="line"/>
		</contour>
		<contour>
			<point x="14" y="0" type="line"/>
			<point x="208" y="0" type="line"/>
			<point x="415" y="332" type="line"/>
			<point x="233" y="332" type="line"/>
		</contour>
	</outline>
</glyph>
<glyph name="ve" format="2">
	<unicode hex="0432"/>
	<advance width="555"/>
	<outline>
		<contour>
			<point x="63" y="0" type="line"/>
			<point x="333" y="0" type="line" smooth="yes"/>
			<point x="448" y="0"/>
			<point x="525" y="57"/>
			<point x="525" y="143" type="curve" smooth="yes"/>
			<point x="525" y="203"/>
			<point x="484" y="251"/>
			<point x="418" y="269" type="curve"/>
			<point x="418" y="260" type="line"/>
			<point x="471" y="280"/>
			<point x="502" y="321"/>
			<point x="502" y="372" type="curve" smooth="yes"/>
			<point x="502" y="458"/>
			<point x="425" y="510"/>
			<point x="311" y="510" type="curve" smooth="yes"/>
			<point x="63" y="510" type="line"/>
		</contour>
		<contour>
			<point x="180" y="113" type="line"/>
			<point x="205" y="88" type="line"/>
			<point x="205" y="422" type="line"/>
			<point x="180" y="397" type="line"/>
			<point x="281" y="397" type="line" smooth="yes"/>
			<point x="323" y="397"/>
			<point x="346" y="385"/>
			<point x="346" y="352" type="curve" smooth="yes"/>
			<point x="346" y="320"/>
			<point x="323" y="308"/>
			<point x="281" y="308" type="curve" smooth="yes"/>
			<point x="146" y="308" type="line"/>
			<point x="146" y="211" type="line"/>
			<point x="303" y="211" type="line" smooth="yes"/>
			<point x="349" y="211"/>
			<point x="369" y="193"/>
			<point x="369" y="162" type="curve" smooth="yes"/>
			<point x="369" y="127"/>
			<point x="350" y="113"/>
			<point x="303" y="113" type="curve" smooth="yes"/>
		</contour>
	</outline>
</glyph>
<glyph name="ghe" format="2">
	<unicode hex="0433"/>
	<advance width="454"/>
	<outline>
		<contour>
			<point x="63" y="0" type="line"/>
			<point x="226" y="0" type="line"/>
			<point x="226" y="417" type="line"/>
			<point x="186" y="379" type="line"/>
			<point x="434" y="379" type="line"/>
			<point x="434" y="510" type="line"/>
			<point x="63" y="510" type="line"/>
		</contour>
	</outline>
	<anchor name="top.LC" x="244" y="544"/>
</glyph>
<glyph name="de" format="2">
	<unicode hex="0434"/>
	<advance width="647"/>
	<outline>
		<contour>
			<point x="20" y="-144" type="line"/>
			<point x="173" y="-144" type="line"/>
			<point x="173" y="25" type="line"/>
			<point x="148" y="0" type="line"/>
			<point x="498" y="0" type="line"/>
			<point x="473" y="25" type="line"/>
			<point x="473" y="-144" type="line"/>
			<point x="626" y="-144" type="line"/>
			<point x="626" y="131" type="line"/>
			<point x="222" y="131" type="line"/>
			<point x="230" y="113" type="line"/>
			<point x="255" y="134"/>
			<point x="268" y="165"/>
			<point x="273" y="216" type="curve" smooth="yes"/>
			<point x="291" y="406" type="line"/>
			<point x="264" y="381" type="line"/>
			<point x="410" y="381" type="line"/>
			<point x="385" y="406" type="line"/>
			<point x="385" y="90" type="line"/>
			<point x="543" y="90" type="line"/>
			<point x="543" y="510" type="line"/>
			<point x="145" y="510" type="line"/>
			<point x="120" y="229" type="line" smooth="yes"/>
			<point x="113" y="146"/>
			<point x="100" y="131"/>
			<point x="61" y="131" type="curve" smooth="yes"/>
			<point x="20" y="131" type="line"/>
		</contour>
	</outline>
</glyph>
<glyph name="icyr" format="2">
	<unicode hex="0438"/>
	<advance width="606"/>
	<outline>
		<contour>
			<point x="63" y="0" type="line"/>
			<point x="207" y="0" type="line"/>
			<point x="397" y="291" type="line"/>
			<point x="390" y="293" type="line"/>
			<point x="390" y="0" type="line"/>
			<point x="543" y="0" type="line"/>
			<point x="543" y="510" type="line"/>
			<point x="398" y="510" type="line"/>
			<point x="209" y="221" type="line"/>
			<point x="216" y="219" type="line"/>
			<point x="216" y="510" type="line"/>
			<point x="63" y="510" type="line"/>
		</contour>
	</outline>
	<anchor name="top.LC" x="309" y="544"/>
</glyph>
<glyph name="el" format="2">
	<unicode hex="043B"/>
	<advance width="588"/>
	<outline>
		<contour>
			<point x="16" y="0" type="line"/>
			<point x="77" y="0" type="line" smooth="yes"/>
			<point x="184" y="0"/>
			<point x="233" y="33"/>
			<point x="244" y="143" type="curve" smooth="yes"/>
			<point x="270" y="407" type="line"/>
			<point x="240" y="379" type="line"/>
			<point x="392" y="379" type="line"/>
			<point x="362" y="408" type="line"/>
			<point x="362" y="0" type="line"/>
			<point x="525" y="0" type="line"/>
			<point x="525" y="510" type="line"/>
			<point x="125" y="510" type="line"/>
			<point x="94" y="179" type="line" smooth="yes"/>
			<point x="91" y="148"/>
			<point x="79" y="135"/>
			<point x="47" y="135" type="curve" smooth="yes"/>
			<point x="16" y="135" type="line"/>
		</contour>
	</outline>
</glyph>
<glyph name="en" format="2">
	<unicode hex="043D"/>
	<advance width="606"/>
	<outline>
		<contour>
			<point x="63" y="0" type="line"/>
			<point x="226" y="0" type="line"/>
			<point x="226" y="510" type="line"/>
			<point x="63" y="510" type="line"/>
		</contour>
		<contour>
			<point x="380" y="0" type="line"/>
			<point x="543" y="0" type="line"/>
			<point x="543" y="510" type="line"/>
			<point x="380" y="510" type="line"/>
		</contour>
		<contour>
			<point x="136" y="202" type="line"/>
			<point x="477" y="202" type="line"/>
			<point x="477" y="333" type="line"/>
			<point x="136" y="333" type="line"/>
		</contour>
	</outline>
</glyph>
<glyph name="pe" format="2">
	<unicode hex="043F"/>
	<advance width="604"/>
	<outline>
		<contour>
			<point x="63" y="0" type="line"/>
			<point x="226" y="0" type="line"/>
			<point x="226" y="420" type="line"/>
			<point x="182" y="379" type="line"/>
			<point x="421" y="379" type="line"/>
			<point x="378" y="420" type="line"/>
			<point x="378" y="0" type="line"/>
			<point x="541" y="0" type="line"/>
			<point x="541" y="510" type="line"/>
			<point x="63" y="510" type="line"/>
		</contour>
	</outline>
</glyph>
<glyph name="lje" format="2">
	<unicode hex="0459"/>
	<advance width="796"/>
	<outline>
		<contour>
			<point x="16" y="0" type="line"/>
			<point x="77" y="0" type="line" smooth="yes"/>
			<point x="185" y="0"/>
			<point x="233" y="33"/>
			<point x="244" y="143" type="curve" smooth="yes"/>
			<point x="269" y="394" type="line"/>
			<point x="250" y="379" type="line"/>
			<point x="368" y="379" type="line"/>
			<point x="352" y="394" type="line"/>
			<point x="352" y="0" type="line"/>
			<point x="589" y="0" type="line" smooth="yes"/>
			<point x="703" y="0"/>
			<point x="781" y="70"/>
			<point x="781" y="190" type="curve" smooth="yes"/>
			<point x="781" y="294"/>
			<point x="704" y="367"/>
			<point x="589" y="367" type="curve" smooth="yes"/>
			<point x="439" y="367" type="line"/>
			<point x="439" y="241" type="line"/>
			<point x="566" y="241" type="line" smooth="yes"/>
			<point x="603" y="241"/>
			<point x="628" y="221"/>
			<point x="628" y="185" type="curve" smooth="yes"/>
			<point x="628" y="147"/>
			<point x="603" y="126"/>
			<point x="566" y="126" type="curve" smooth="yes"/>
			<point x="491" y="126" type="line"/>
			<point x="505" y="110" type="line"/>
			<point x="505" y="510" type="line"/>
			<point x="125" y="510" type="line"/>
			<point x="94" y="179" type="line" smooth="yes"/>
			<point x="91" y="148"/>
			<point x="79" y="135"/>
			<point x="47" y="135" type="curve" smooth="yes"/>
			<point x="16" y="135" type="line"/>
		</contour>
	</outline>
</glyph>
<glyph name="Yat" format="2">
	<unicode hex="0462"/>
	<advance width="709"/>
	<outline>
		<contour>
			<point x="24" y="516" type="line"/>
			<point x="508" y="516" type="line"/>
			<point x="508" y="649" type="line"/>
			<point x="24" y="649" type="line"/>
		</contour>
		<contour>
			<point x="133" y="0" type="line"/>
			<point x="430" y="0" type="line" smooth="yes"/>
			<point x="583" y="0"/>
			<point x="684" y="93"/>
			<point x="684" y="226" type="curve" smooth="yes"/>
			<point x="684" y="360"/>
			<point x="583" y="447"/>
			<point x="430" y="447" type="curve" smooth="yes"/>
			<point x="209" y="447" type="line"/>
			<point x="209" y="306" type="line"/>
			<point x="431" y="306" type="line" smooth="yes"/>
			<point x="484" y="306"/>
			<point x="516" y="277"/>
			<point x="516" y="226" type="curve" smooth="yes"/>
			<point x="516" y="172"/>
			<point x="484" y="141"/>
			<point x="431" y="141" type="curve" smooth="yes"/>
			<point x="283" y="141" type="line"/>
			<point x="299" y="122" type="line"/>
			<point x="299" y="715" type="line"/>
			<point x="133" y="715" type="line"/>
		</contour>
	</outline>
</glyph>
<glyph name="Fita" format="2">
	<unicode hex="0472"/>
	<advance width="827"/>
	<outline>
		<contour>
			<point x="140" y="294" type="line"/>
			<point x="685" y="294" type="line"/>
			<point x="685" y="436" type="line"/>
			<point x="140" y="436" type="line"/>
		</contour>
		<contour>
			<point x="414" y="-16" type="curve" smooth="yes"/>
			<point x="626" y="-16"/>
			<point x="779" y="141"/>
			<point x="779" y="358" type="curve" smooth="yes"/>
			<point x="779" y="574"/>
			<point x="626" y="731"/>
			<point x="414" y="731" type="curve" smooth="yes"/>
			<point x="202" y="731"/>
			<point x="48" y="575"/>
			<point x="48" y="358" type="curve" smooth="yes"/>
			<point x="48" y="141"/>
			<point x="201" y="-16"/>
		</contour>
		<contour>
			<point x="414" y="129" type="curve" smooth="yes"/>
			<point x="295" y="129"/>
			<point x="217" y="220"/>
			<point x="217" y="358" type="curve" smooth="yes"/>
			<point x="217" y="495"/>
			<point x="295" y="586"/>
			<point x="414" y="586" type="curve" smooth="yes"/>
			<point x="533" y="586"/>
			<point x="611" y="495"/>
			<point x="611" y="358" type="curve" smooth="yes"/>
			<point x="611" y="220"/>
			<point x="533" y="129"/>
		</contour>
	</outline>
</glyph>
<glyph name="dagger" format="2">
	<unicode hex="2020"/>
	<advance width="460"/>
	<outline>
		<contour>
			<point x="436" y="379" type="line"/>
			<point x="436" y="510" type="line"/>
			<point x="24" y="510" type="line"/>
			<point x="24" y="379" type="line"/>
		</contour>
		<contour>
			<point x="312" y="-129" type="line"/>
			<point x="312" y="736" type="line"/>
			<point x="149" y="736" type="line"/>
			<point x="149" y="-129" type="line"/>
		</contour>
	</outline>
</glyph>
<glyph name="fraction" format="2">
	<unicode hex="2044"/>
	<advance width="229"/>
	<outline>
		<contour>
			<point x="-47" y="0" type="line"/>
			<point x="443" y="715" type="line"/>
			<point x="276" y="715" type="line"/>
			<point x="-214" y="0" type="line"/>
		</contour>
	</outline>
</glyph>
<glyph name="hryvnia" format="2">
	<unicode hex="20B4"/>
	<advance width="632"/>
	<outline>
		<contour>
			<point x="329" y="-16" type="curve" smooth="yes"/>
			<point x="432" y="-16"/>
			<point x="512" y="13"/>
			<point x="571" y="68" type="curve"/>
			<point x="490" y="178" type="line"/>
			<point x="456" y="143"/>
			<point x="402" y="120"/>
			<point x="337" y="120" type="curve" smooth="yes"/>
			<point x="270" y="120"/>
			<point x="233" y="140"/>
			<point x="233" y="177" type="curve" smooth="yes"/>
			<point x="233" y="214"/>
			<point x="262" y="236"/>
			<point x="321" y="279" type="curve" smooth="yes"/>
			<point x="381" y="324" type="line" smooth="yes"/>
			<point x="464" y="387"/>
			<point x="558" y="474"/>
			<point x="558" y="569" type="curve" smooth="yes"/>
			<point x="558" y="669"/>
			<point x="473" y="731"/>
			<point x="336" y="731" type="curve" smooth="yes"/>
			<point x="240" y="731"/>
			<point x="154" y="696"/>
			<point x="101" y="637" type="curve"/>
			<point x="189" y="536" type="line"/>
			<point x="219" y="573"/>
			<point x="263" y="595"/>
			<point x="324" y="595" type="curve" smooth="yes"/>
			<point x="374" y="595"/>
			<point x="405" y="576"/>
			<point x="405" y="544" type="curve" smooth="yes"/>
			<point x="405" y="513"/>
			<point x="376" y="489"/>
			<point x="302" y="430" type="curve" smooth="yes"/>
			<point x="248" y="387" type="line" smooth="yes"/>
			<point x="164" y="323"/>
			<point x="78" y="257"/>
			<point x="78" y="145" type="curve" smooth="yes"/>
			<point x="78" y="41"/>
			<point x="168" y="-16"/>
		</contour>
		<contour>
			<point x="32" y="228" type="line"/>
			<point x="600" y="228" type="line"/>
			<point x="600" y="336" type="line"/>
			<point x="32" y="336" type="line"/>
		</contour>
		<contour>
			<point x="32" y="380" type="line"/>
			<point x="600" y="380" type="line"/>
			<point x="600" y="488" type="line"/>
			<point x="32" y="488" type="line"/>
		</contour>
	</outline>
</glyph>
<glyph name="liraturkish" format="2">
	<unicode hex="20BA"/>
	<advance width="632"/>
	<outline>
		<contour>
			<point x="106" y="0" type="line"/>
			<point x="279" y="0" type="line" smooth="yes"/>
			<point x="485" y="0"/>
			<point x="595" y="108"/>
			<point x="595" y="308" type="curve" smooth="yes"/>
			<point x="595" y="318" type="line"/>
			<point x="429" y="328" type="line"/>
			<point x="429" y="294" type="line" smooth="yes"/>
			<point x="429" y="191"/>
			<point x="380" y="136"/>
			<point x="292" y="136" type="curve" smooth="yes"/>
			<point x="272" y="136" type="line"/>
			<point x="272" y="715" type="line"/>
			<point x="106" y="715" type="line"/>
		</contour>
		<contour>
			<point x="396" y="353" type="line"/>
			<point x="396" y="466" type="line"/>
			<point x="33" y="303" type="line"/>
			<point x="33" y="190" type="line"/>
		</contour>
		<contour>
			<point x="396" y="513" type="line"/>
			<point x="396" y="626" type="line"/>
			<point x="33" y="463" type="line"/>
			<point x="33" y="350" type="line"/>
		</contour>
	</outline>
</glyph>
<glyph name="De.loclBGR" format="2">
	<advance width="788"/>
	<outline>
		<contour>
			<point x="20" y="-174" type="line"/>
			<point x="175" y="-174" type="line"/>
			<point x="175" y="25" type="line"/>
			<point x="150" y="0" type="line"/>
			<point x="638" y="0" type="line"/>
			<point x="613" y="25" type="line"/>
			<point x="613" y="-174" type="line"/>
			<point x="768" y="-174" type="line"/>
			<point x="768" y="142" type="line"/>
			<point x="20" y="142" type="line"/>
		</contour>
		<contour>
			<point x="61" y="41" type="line"/>
			<point x="231" y="41" type="line"/>
			<point x="414" y="591" type="line"/>
			<point x="372" y="591" type="line"/>
			<point x="554" y="40" type="line"/>
			<point x="731" y="40" type="line"/>
			<point x="489" y="715" type="line"/>
			<point x="303" y="715" type="line"/>
		</contour>
	</outline>
</glyph>
<glyph name="breveacutecomb.cap" format="2">
	<outline>
		<contour>
			<point x="0" y="795" type="curve" smooth="yes"/>
			<point x="99" y="795"/>
			<point x="173" y="855"/>
			<point x="183" y="955" type="curve"/>
			<point x="58" y="955" type="line"/>
			<point x="52" y="920"/>
			<point x="29" y="897"/>
			<point x="0" y="897" type="curve" smooth="yes"/>
			<point x="-28" y="897"/>
			<point x="-52" y="920"/>
			<point x="-58" y="955" type="curve"/>
			<point x="-183" y="955" type="line"/>
			<point x="-173" y="855"/>
			<point x="-99" y="795"/>
		</contour>
		<contour>
			<point x="-60" y="965" type="line"/>
			<point x="46" y="965" type="line"/>
			<point x="192" y="1113" type="line"/>
			<point x="39" y="1113" type="line"/>
		</contour>
	</outline>
	<anchor name="_top.UC" x="0" y="750"/>
</glyph>
<glyph name="brevecomb.cyrl" format="2">
	<outline>
		<contour>
			<point x="0" y="590" type="curve" smooth="yes"/>
			<point x="102" y="590"/>
			<point x="171" y="639"/>
			<point x="189" y="748" type="curve"/>
			<point x="62" y="748" type="line"/>
			<point x="57" y="697"/>
			<point x="36" y="679"/>
			<point x="0" y="679" type="curve" smooth="yes"/>
			<point x="-34" y="679"/>
			<point x="-56" y="697"/>
			<point x="-62" y="748" type="curve"/>
			<point x="-188" y="748" type="line"/>
			<point x="-170" y="639"/>
			<point x="-101" y="590"/>
		</contour>
	</outline>
	<anchor name="_top.LC" x="0" y="544"/>
</glyph>
<glyph name="brevehookabovecomb" format="2">
	<outline>
		<contour>
			<point x="0" y="587" type="curve" smooth="yes"/>
			<point x="89" y="587"/>
			<point x="163" y="648"/>
			<point x="173" y="757" type="curve"/>
			<point x="54" y="757" type="line"/>
			<point x="47" y="710"/>
			<point x="26" y="694"/>
			<point x="0" y="694" type="curve" smooth="yes"/>
			<point x="-26" y="694"/>
			<point x="-47" y="710"/>
			<point x="-54" y="757" type="curve"/>
			<point x="-173" y="757" type="line"/>
			<point x="-163" y="648"/>
			<point x="-89" y="587"/>
		</contour>
		<contour>
			<point x="-13" y="759" type="line"/>
			<point x="67" y="790"/>
			<point x="109" y="836"/>
			<point x="109" y="891" type="curve" smooth="yes"/>
			<point x="109" y="949"/>
			<point x="61" y="991"/>
			<point x="-7" y="991" type="curve" smooth="yes"/>
			<point x="-48" y="991"/>
			<point x="-86" y="975"/>
			<point x="-116" y="942" type="curve"/>
			<point x="-72" y="883" type="line"/>
			<point x="-52" y="898"/>
			<point x="-38" y="905"/>
			<point x="-22" y="905" type="curve" smooth="yes"/>
			<point x="-3" y="905"/>
			<point x="8" y="894"/>
			<point x="8" y="877" type="curve" smooth="yes"/>
			<point x="8" y="858"/>
			<point x="-7" y="842"/>
			<point x="-47" y="822" type="curve"/>
		</contour>
	</outline>
	<anchor name="_top.LC" x="0" y="544"/>
</glyph>
<glyph name="commaaboverightcomb.short" format="2">
	<outline>
		<contour>
			<point x="52" y="552" type="line"/>
			<point x="93" y="588"/>
			<point x="132" y="643"/>
			<point x="132" y="685" type="curve" smooth="yes"/>
			<point x="132" y="735"/>
			<point x="101" y="766"/>
			<point x="57" y="766" type="curve" smooth="yes"/>
			<point x="15" y="766"/>
			<point x="-15" y="738"/>
			<point x="-15" y="696" type="curve" smooth="yes"/>
			<point x="-15" y="662"/>
			<point x="17" y="628"/>
			<point x="59" y="628" type="curve"/>
			<point x="37" y="658" type="line"/>
			<point x="34" y="630"/>
			<point x="13" y="587"/>
			<point x="-22" y="552" type="curve"/>
		</contour>
	</outline>
	<anchor name="_top_right.LC.short" x="0" y="540"/>
</glyph>
<glyph name="el.loclBGR" format="2">
	<advance width="607"/>
	<outline>
		<contour>
			<point x="20" y="0" type="line"/>
			<point x="182" y="0" type="line"/>
			<point x="309" y="361" type="line"/>
			<point x="293" y="361" type="line"/>
			<point x="421" y="0" type="line"/>
			<point x="587" y="0" type="line"/>
			<point x="382" y="510" type="line"/>
			<point x="225" y="510" type="line"/>
		</contour>
	</outline>
</glyph>
<glyph name="hungarumlautcomb.cap" format="2">
	<outline>
		<contour>
			<point x="122" y="953" type="line"/>
			<point x="-66" y="953" type="line"/>
			<point x="-180" y="789" type="line"/>
			<point x="-23" y="789" type="line"/>
		</contour>
		<contour>
			<point x="359" y="953" type="line"/>
			<point x="171" y="953" type="line"/>
			<point x="26" y="789" type="line"/>
			<point x="183" y="789" type="line"/>
		</contour>
	</outline>
	<anchor name="_top.UC" x="0" y="750"/>
</glyph>
<glyph name="yu.loclBGR" format="2">
	<advance width="854"/>
	<outline>
		<contour>
			<point x="63" y="0" type="line"/>
			<point x="226" y="0" type="line"/>
			<point x="226" y="720" type="line"/>
			<point x="63" y="720" type="line"/>
		</contour>
		<contour>
			<point x="140" y="201" type="line"/>
			<point x="353" y="201" type="line"/>
			<point x="353" y="333" type="line"/>
			<point x="140" y="333" type="line"/>
		</contour>
		<contour>
			<point x="547" y="-16" type="curve" smooth="yes"/>
			<point x="706" y="-16"/>
			<point x="814" y="96"/>
			<point x="814" y="255" type="curve" smooth="yes"/>
			<point x="814" y="414"/>
			<point x="706" y="526"/>
			<point x="547" y="526" type="curve" smooth="yes"/>
			<point x="389" y="526"/>
			<point x="285" y="414"/>
			<point x="285" y="255" type="curve" smooth="yes"/>
			<point x="285" y="96"/>
			<point x="389" y="-16"/>
		</contour>
		<contour>
			<point x="547" y="120" type="curve" smooth="yes"/>
			<point x="484" y="120"/>
			<point x="448" y="175"/>
			<point x="448" y="255" type="curve" smooth="yes"/>
			<point x="448" y="335"/>
			<point x="484" y="390"/>
			<point x="547" y="390" type="curve" smooth="yes"/>
			<point x="610" y="390"/>
			<point x="647" y="335"/>
			<point x="647" y="255" type="curve" smooth="yes"/>
			<point x="647" y="175"/>
			<point x="610" y="120"/>
		</contour>
	</outline>
</glyph>
<glyph name="zhe.loclBGR" format="2">
	<advance width="846"/>
	<outline>
		<contour>
			<point x="6" y="0" type="line"/>
			<point x="192" y="0" type="line"/>
			<point x="371" y="264" type="line"/>
			<point x="361" y="264" type="line"/>
			<point x="193" y="510" type="line"/>
			<point x="14" y="510" type="line"/>
			<point x="206" y="239" type="line"/>
			<point x="206" y="278" type="line"/>
		</contour>
		<contour>
			<point x="344" y="0" type="line"/>
			<point x="502" y="0" type="line"/>
			<point x="502" y="720" type="line"/>
			<point x="344" y="720" type="line"/>
		</contour>
		<contour>
			<point x="654" y="0" type="line"/>
			<point x="840" y="0" type="line"/>
			<point x="640" y="278" type="line"/>
			<point x="640" y="239" type="line"/>
			<point x="832" y="510" type="line"/>
			<point x="653" y="510" type="line"/>
			<point x="485" y="264" type="line"/>
			<point x="475" y="264" type="line"/>
		</contour>
	</outline>
</glyph>
